<?xml version="1.0" encoding="UTF-8" standalone="no"?>
<!-- Created with Inkscape (http://www.inkscape.org/) -->

<svg
   xmlns:dc="http://purl.org/dc/elements/1.1/"
   xmlns:cc="http://creativecommons.org/ns#"
   xmlns:rdf="http://www.w3.org/1999/02/22-rdf-syntax-ns#"
   xmlns:svg="http://www.w3.org/2000/svg"
   xmlns="http://www.w3.org/2000/svg"
   xmlns:sodipodi="http://sodipodi.sourceforge.net/DTD/sodipodi-0.dtd"
   xmlns:inkscape="http://www.inkscape.org/namespaces/inkscape"
   width="217.42151mm"
   height="128.98904mm"
   viewBox="0 0 770.39117 457.04779"
   id="svg2"
   version="1.1"
   inkscape:version="0.91 r13725"
   sodipodi:docname="raymarch.svg"
   inkscape:export-filename="/home/john/documents/learn-ray-marching/img/raymarch10.png"
   inkscape:export-xdpi="90"
   inkscape:export-ydpi="90">
  <defs
     id="defs4" />
  <sodipodi:namedview
     id="base"
     pagecolor="#ffffff"
     bordercolor="#666666"
     borderopacity="1.0"
     inkscape:pageopacity="0.0"
     inkscape:pageshadow="2"
     inkscape:zoom="0.70710678"
     inkscape:cx="245.74852"
     inkscape:cy="259.83778"
     inkscape:document-units="px"
     inkscape:current-layer="layer1"
     showgrid="false"
     inkscape:object-paths="true"
     inkscape:snap-center="false"
     inkscape:snap-intersection-paths="false"
     inkscape:snap-global="false"
     fit-margin-top="0"
     fit-margin-left="0"
     fit-margin-right="0"
     fit-margin-bottom="0"
     inkscape:snap-bbox="true"
     inkscape:bbox-nodes="false"
     inkscape:snap-page="false"
     inkscape:window-width="1920"
     inkscape:window-height="1021"
     inkscape:window-x="0"
     inkscape:window-y="0"
     inkscape:window-maximized="1"
     inkscape:object-nodes="true"
     inkscape:snap-smooth-nodes="true" />
  <metadata
     id="metadata7">
    <rdf:RDF>
      <cc:Work
         rdf:about="">
        <dc:format>image/svg+xml</dc:format>
        <dc:type
           rdf:resource="http://purl.org/dc/dcmitype/StillImage" />
        <dc:title></dc:title>
      </cc:Work>
    </rdf:RDF>
  </metadata>
  <g
     inkscape:label="1"
     inkscape:groupmode="layer"
     id="layer1"
     transform="translate(-18.108797,-181.8622)"
     style="display:none">
    <path
       inkscape:connector-curvature="0"
       style="fill:#cccccc;stroke:none;stroke-width:1;stroke-miterlimit:4;stroke-dasharray:none;stroke-dashoffset:0"
       d="m 604.03849,181.8622 -86.41211,49.89062 -38.24805,66.2461 91.64844,52.91406 0,80.71875 -80.61719,46.54492 19.72461,73.61914 -206.07812,-55.21875 -6.65039,142.33204 491.09374,0 0,-457.04688 -184.46093,0 z"
       id="rect4271" />
    <g
       transform="matrix(0.96592583,0.25881905,-0.25881905,0.96592583,-58.761184,-233.50391)"
       id="layer1-6"
       inkscape:label="Layer 1">
      <path
         inkscape:connector-curvature="0"
         id="path4159"
         d="m 290.68114,477.60743 -14.97038,6.50936 a 30.170912,51.792546 0 0 0 -2.20001,19.33643 30.170912,51.792546 0 0 0 2.20459,19.34563 l 14.9658,6.50708 a 68.644927,51.698482 0 0 0 0,-51.6985 z"
         style="opacity:1;fill:#68c5d8;fill-opacity:1;stroke:#000000;stroke-width:2.99999976;stroke-miterlimit:4;stroke-dasharray:none;stroke-opacity:1" />
      <path
         inkscape:connector-curvature="0"
         id="path4150"
         d="m 292.50869,478.34179 a 15.757246,30.19087 0 0 0 -7.02957,25.11374 15.757246,30.19087 0 0 0 7.04634,25.13554 62.979609,51.698482 0 0 0 -0.0166,-50.24928 z"
         style="opacity:1;fill:#000000;fill-opacity:1;stroke:#000000;stroke-width:2.99999976;stroke-miterlimit:4;stroke-dasharray:none;stroke-opacity:1" />
      <path
         sodipodi:nodetypes="ccc"
         inkscape:connector-curvature="0"
         id="path4171"
         d="m 308.56599,468.26217 c -28.81545,17.40731 -54.35174,19.29434 -85.56455,35.195 30.15467,8.83653 56.25842,21.71118 83.41546,32.65445"
         style="fill:none;fill-rule:evenodd;stroke:#000000;stroke-width:2.99999976;stroke-linecap:round;stroke-linejoin:round;stroke-miterlimit:4;stroke-dasharray:none;stroke-opacity:1" />
      <path
         transform="translate(221.50169,466.75105)"
         inkscape:connector-curvature="0"
         id="path4211"
         d="M 48.21183,52.155009 C 35.090221,46.575602 20.376302,41.01107 9.5277174,37.525394 L 5.8453909,36.342253 7.3180087,35.629827 C 11.92105,33.402961 20.010813,30.077015 26.821849,27.611209 c 4.631757,-1.676838 25.20901,-8.613713 25.295323,-8.5274 0.02938,0.02938 -0.175948,1.403336 -0.456274,3.053245 -0.875727,5.15426 -1.131533,8.416536 -1.136239,14.49032 -0.0049,6.352757 0.323901,10.155089 1.417923,16.396038 0.06391,0.364602 0.04614,0.656618 -0.03951,0.648923 -0.08564,-0.0077 -1.746702,-0.690492 -3.691245,-1.517326 z"
         style="opacity:1;fill:#ffffff;fill-opacity:1;stroke:#000000;stroke-width:2.99999976;stroke-linecap:round;stroke-linejoin:round;stroke-miterlimit:4;stroke-dasharray:none;stroke-opacity:1" />
    </g>
    <rect
       style="opacity:0.00100002;fill:none;stroke:#000000;stroke-width:1;stroke-miterlimit:4;stroke-dasharray:none;stroke-dashoffset:0"
       id="rect4266"
       width="770.39117"
       height="457.04779"
       x="18.108797"
       y="181.8622" />
  </g>
  <g
     transform="translate(-18.108797,-181.8622)"
     id="g4408"
     inkscape:groupmode="layer"
     inkscape:label="2"
     style="display:none">
    <path
       inkscape:connector-curvature="0"
       id="path4412"
       d="M 28,312.3622 700.30152,492.50485"
       style="fill:none;fill-rule:evenodd;stroke:#000000;stroke-width:1;stroke-linecap:butt;stroke-linejoin:miter;stroke-miterlimit:4;stroke-dasharray:none;stroke-opacity:1" />
    <path
       inkscape:connector-curvature="0"
       id="path4414"
       d="m 604.03849,181.8622 -86.41211,49.89062 -38.24805,66.2461 91.64844,52.91406 0,80.71875 -80.61719,46.54492 19.72461,73.61914 -206.07812,-55.21875 -6.65039,142.33204 491.09374,0 0,-457.04688 -184.46093,0 z"
       style="fill:#cccccc;stroke:none;stroke-width:1;stroke-miterlimit:4;stroke-dasharray:none;stroke-dashoffset:0" />
    <g
       inkscape:label="Layer 1"
       id="g4416"
       transform="matrix(0.96592583,0.25881905,-0.25881905,0.96592583,-58.761184,-233.50391)">
      <path
         style="opacity:1;fill:#68c5d8;fill-opacity:1;stroke:#000000;stroke-width:2.99999976;stroke-miterlimit:4;stroke-dasharray:none;stroke-opacity:1"
         d="m 290.68114,477.60743 -14.97038,6.50936 a 30.170912,51.792546 0 0 0 -2.20001,19.33643 30.170912,51.792546 0 0 0 2.20459,19.34563 l 14.9658,6.50708 a 68.644927,51.698482 0 0 0 0,-51.6985 z"
         id="path4418"
         inkscape:connector-curvature="0" />
      <path
         style="opacity:1;fill:#000000;fill-opacity:1;stroke:#000000;stroke-width:2.99999976;stroke-miterlimit:4;stroke-dasharray:none;stroke-opacity:1"
         d="m 292.50869,478.34179 a 15.757246,30.19087 0 0 0 -7.02957,25.11374 15.757246,30.19087 0 0 0 7.04634,25.13554 62.979609,51.698482 0 0 0 -0.0166,-50.24928 z"
         id="path4420"
         inkscape:connector-curvature="0" />
      <path
         style="fill:none;fill-rule:evenodd;stroke:#000000;stroke-width:2.99999976;stroke-linecap:round;stroke-linejoin:round;stroke-miterlimit:4;stroke-dasharray:none;stroke-opacity:1"
         d="m 308.56599,468.26217 c -28.81545,17.40731 -54.35174,19.29434 -85.56455,35.195 30.15467,8.83653 56.25842,21.71118 83.41546,32.65445"
         id="path4422"
         inkscape:connector-curvature="0"
         sodipodi:nodetypes="ccc" />
      <path
         style="opacity:1;fill:#ffffff;fill-opacity:1;stroke:#000000;stroke-width:2.99999976;stroke-linecap:round;stroke-linejoin:round;stroke-miterlimit:4;stroke-dasharray:none;stroke-opacity:1"
         d="M 48.21183,52.155009 C 35.090221,46.575602 20.376302,41.01107 9.5277174,37.525394 L 5.8453909,36.342253 7.3180087,35.629827 C 11.92105,33.402961 20.010813,30.077015 26.821849,27.611209 c 4.631757,-1.676838 25.20901,-8.613713 25.295323,-8.5274 0.02938,0.02938 -0.175948,1.403336 -0.456274,3.053245 -0.875727,5.15426 -1.131533,8.416536 -1.136239,14.49032 -0.0049,6.352757 0.323901,10.155089 1.417923,16.396038 0.06391,0.364602 0.04614,0.656618 -0.03951,0.648923 -0.08564,-0.0077 -1.746702,-0.690492 -3.691245,-1.517326 z"
         id="path4424"
         inkscape:connector-curvature="0"
         transform="translate(221.50169,466.75105)" />
    </g>
    <rect
       y="181.8622"
       x="18.108797"
       height="457.04779"
       width="770.39117"
       id="rect4442"
       style="opacity:0.00100002;fill:none;stroke:#000000;stroke-width:1;stroke-miterlimit:4;stroke-dasharray:none;stroke-dashoffset:0" />
  </g>
  <g
     inkscape:label="3"
     inkscape:groupmode="layer"
     id="g4446"
     transform="translate(-18.108797,-181.8622)"
     style="display:none">
    <path
       style="fill:none;fill-rule:evenodd;stroke:#000000;stroke-width:1;stroke-linecap:butt;stroke-linejoin:miter;stroke-miterlimit:4;stroke-dasharray:none;stroke-opacity:1"
       d="M 28,312.3622 700.30152,492.50485"
       id="path4450"
       inkscape:connector-curvature="0" />
    <path
       inkscape:connector-curvature="0"
       style="fill:#cccccc;stroke:none;stroke-width:1;stroke-miterlimit:4;stroke-dasharray:none;stroke-dashoffset:0"
       d="m 604.03849,181.8622 -86.41211,49.89062 -38.24805,66.2461 91.64844,52.91406 0,80.71875 -80.61719,46.54492 19.72461,73.61914 -206.07812,-55.21875 -6.65039,142.33204 491.09374,0 0,-457.04688 -184.46093,0 z"
       id="path4452" />
    <g
       transform="matrix(0.96592583,0.25881905,-0.25881905,0.96592583,-58.761184,-233.50391)"
       id="g4454"
       inkscape:label="Layer 1">
      <path
         inkscape:connector-curvature="0"
         id="path4456"
         d="m 290.68114,477.60743 -14.97038,6.50936 a 30.170912,51.792546 0 0 0 -2.20001,19.33643 30.170912,51.792546 0 0 0 2.20459,19.34563 l 14.9658,6.50708 a 68.644927,51.698482 0 0 0 0,-51.6985 z"
         style="opacity:1;fill:#68c5d8;fill-opacity:1;stroke:#000000;stroke-width:2.99999976;stroke-miterlimit:4;stroke-dasharray:none;stroke-opacity:1" />
      <path
         inkscape:connector-curvature="0"
         id="path4458"
         d="m 292.50869,478.34179 a 15.757246,30.19087 0 0 0 -7.02957,25.11374 15.757246,30.19087 0 0 0 7.04634,25.13554 62.979609,51.698482 0 0 0 -0.0166,-50.24928 z"
         style="opacity:1;fill:#000000;fill-opacity:1;stroke:#000000;stroke-width:2.99999976;stroke-miterlimit:4;stroke-dasharray:none;stroke-opacity:1" />
      <path
         sodipodi:nodetypes="ccc"
         inkscape:connector-curvature="0"
         id="path4460"
         d="m 308.56599,468.26217 c -28.81545,17.40731 -54.35174,19.29434 -85.56455,35.195 30.15467,8.83653 56.25842,21.71118 83.41546,32.65445"
         style="fill:none;fill-rule:evenodd;stroke:#000000;stroke-width:2.99999976;stroke-linecap:round;stroke-linejoin:round;stroke-miterlimit:4;stroke-dasharray:none;stroke-opacity:1" />
      <path
         transform="translate(221.50169,466.75105)"
         inkscape:connector-curvature="0"
         id="path4462"
         d="M 48.21183,52.155009 C 35.090221,46.575602 20.376302,41.01107 9.5277174,37.525394 L 5.8453909,36.342253 7.3180087,35.629827 C 11.92105,33.402961 20.010813,30.077015 26.821849,27.611209 c 4.631757,-1.676838 25.20901,-8.613713 25.295323,-8.5274 0.02938,0.02938 -0.175948,1.403336 -0.456274,3.053245 -0.875727,5.15426 -1.131533,8.416536 -1.136239,14.49032 -0.0049,6.352757 0.323901,10.155089 1.417923,16.396038 0.06391,0.364602 0.04614,0.656618 -0.03951,0.648923 -0.08564,-0.0077 -1.746702,-0.690492 -3.691245,-1.517326 z"
         style="opacity:1;fill:#ffffff;fill-opacity:1;stroke:#000000;stroke-width:2.99999976;stroke-linecap:round;stroke-linejoin:round;stroke-miterlimit:4;stroke-dasharray:none;stroke-opacity:1" />
    </g>
    <rect
       style="opacity:0.00100002;fill:none;stroke:#000000;stroke-width:1;stroke-miterlimit:4;stroke-dasharray:none;stroke-dashoffset:0"
       id="rect4480"
       width="770.39117"
       height="457.04779"
       x="18.108797"
       y="181.8622" />
    <path
       style="fill:none;stroke:#0000ff;stroke-width:1;stroke-miterlimit:4;stroke-dasharray:none"
       d="m 18.108797,623.81337 c 12.303357,1.60824 24.693861,2.45945 37.101562,2.54883 C 222.60319,626.36185 358.30181,490.66323 358.30216,323.2704 358.2357,273.97108 346.1447,225.43208 323.07755,181.8622"
       id="path4482"
       inkscape:connector-curvature="0"
       sodipodi:nodetypes="cccc" />
  </g>
  <g
     inkscape:label="4"
     inkscape:groupmode="layer"
     id="g4522"
     transform="translate(-18.108797,-181.8622)"
     style="display:none">
    <path
       style="fill:none;fill-rule:evenodd;stroke:#000000;stroke-width:1;stroke-linecap:butt;stroke-linejoin:miter;stroke-miterlimit:4;stroke-dasharray:none;stroke-opacity:1"
       d="M 28,312.3622 700.30152,492.50485"
       id="path4526"
       inkscape:connector-curvature="0" />
    <path
       inkscape:connector-curvature="0"
       style="fill:#cccccc;stroke:none;stroke-width:1;stroke-miterlimit:4;stroke-dasharray:none;stroke-dashoffset:0"
       d="m 604.03849,181.8622 -86.41211,49.89062 -38.24805,66.2461 91.64844,52.91406 0,80.71875 -80.61719,46.54492 19.72461,73.61914 -206.07812,-55.21875 -6.65039,142.33204 491.09374,0 0,-457.04688 -184.46093,0 z"
       id="path4528" />
    <g
       transform="matrix(0.96592583,0.25881905,-0.25881905,0.96592583,-58.761184,-233.50391)"
       id="g4530"
       inkscape:label="Layer 1">
      <path
         inkscape:connector-curvature="0"
         id="path4532"
         d="m 290.68114,477.60743 -14.97038,6.50936 a 30.170912,51.792546 0 0 0 -2.20001,19.33643 30.170912,51.792546 0 0 0 2.20459,19.34563 l 14.9658,6.50708 a 68.644927,51.698482 0 0 0 0,-51.6985 z"
         style="opacity:1;fill:#68c5d8;fill-opacity:1;stroke:#000000;stroke-width:2.99999976;stroke-miterlimit:4;stroke-dasharray:none;stroke-opacity:1" />
      <path
         inkscape:connector-curvature="0"
         id="path4534"
         d="m 292.50869,478.34179 a 15.757246,30.19087 0 0 0 -7.02957,25.11374 15.757246,30.19087 0 0 0 7.04634,25.13554 62.979609,51.698482 0 0 0 -0.0166,-50.24928 z"
         style="opacity:1;fill:#000000;fill-opacity:1;stroke:#000000;stroke-width:2.99999976;stroke-miterlimit:4;stroke-dasharray:none;stroke-opacity:1" />
      <path
         sodipodi:nodetypes="ccc"
         inkscape:connector-curvature="0"
         id="path4536"
         d="m 308.56599,468.26217 c -28.81545,17.40731 -54.35174,19.29434 -85.56455,35.195 30.15467,8.83653 56.25842,21.71118 83.41546,32.65445"
         style="fill:none;fill-rule:evenodd;stroke:#000000;stroke-width:2.99999976;stroke-linecap:round;stroke-linejoin:round;stroke-miterlimit:4;stroke-dasharray:none;stroke-opacity:1" />
      <path
         transform="translate(221.50169,466.75105)"
         inkscape:connector-curvature="0"
         id="path4538"
         d="M 48.21183,52.155009 C 35.090221,46.575602 20.376302,41.01107 9.5277174,37.525394 L 5.8453909,36.342253 7.3180087,35.629827 C 11.92105,33.402961 20.010813,30.077015 26.821849,27.611209 c 4.631757,-1.676838 25.20901,-8.613713 25.295323,-8.5274 0.02938,0.02938 -0.175948,1.403336 -0.456274,3.053245 -0.875727,5.15426 -1.131533,8.416536 -1.136239,14.49032 -0.0049,6.352757 0.323901,10.155089 1.417923,16.396038 0.06391,0.364602 0.04614,0.656618 -0.03951,0.648923 -0.08564,-0.0077 -1.746702,-0.690492 -3.691245,-1.517326 z"
         style="opacity:1;fill:#ffffff;fill-opacity:1;stroke:#000000;stroke-width:2.99999976;stroke-linecap:round;stroke-linejoin:round;stroke-miterlimit:4;stroke-dasharray:none;stroke-opacity:1" />
    </g>
    <circle
       style="fill:none;stroke:#0000ff;stroke-width:1;stroke-miterlimit:4;stroke-dasharray:none"
       id="circle4540"
       cx="348.85458"
       cy="398.33493"
       r="106.02728" />
    <rect
       style="opacity:0.00100002;fill:none;stroke:#000000;stroke-width:1;stroke-miterlimit:4;stroke-dasharray:none;stroke-dashoffset:0"
       id="rect4556"
       width="770.39117"
       height="457.04779"
       x="18.108797"
       y="181.8622" />
    <path
       style="fill:none;stroke:#0000ff;stroke-width:1;stroke-miterlimit:4;stroke-dasharray:none"
       d="m 18.108797,623.81337 c 12.303357,1.60824 24.693861,2.45945 37.101562,2.54883 C 222.60319,626.36185 358.30181,490.66323 358.30216,323.2704 358.2357,273.97108 346.1447,225.43208 323.07755,181.8622"
       id="path4558"
       inkscape:connector-curvature="0"
       sodipodi:nodetypes="cccc" />
  </g>
  <g
     transform="translate(-18.108797,-181.8622)"
     id="g4484"
     inkscape:groupmode="layer"
     inkscape:label="5"
     style="display:none">
    <path
       inkscape:connector-curvature="0"
       id="path4488"
       d="M 28,312.3622 700.30152,492.50485"
       style="fill:none;fill-rule:evenodd;stroke:#000000;stroke-width:1;stroke-linecap:butt;stroke-linejoin:miter;stroke-miterlimit:4;stroke-dasharray:none;stroke-opacity:1" />
    <path
       inkscape:connector-curvature="0"
       id="path4490"
       d="m 604.03849,181.8622 -86.41211,49.89062 -38.24805,66.2461 91.64844,52.91406 0,80.71875 -80.61719,46.54492 19.72461,73.61914 -206.07812,-55.21875 -6.65039,142.33204 491.09374,0 0,-457.04688 -184.46093,0 z"
       style="fill:#cccccc;stroke:none;stroke-width:1;stroke-miterlimit:4;stroke-dasharray:none;stroke-dashoffset:0" />
    <g
       inkscape:label="Layer 1"
       id="g4492"
       transform="matrix(0.96592583,0.25881905,-0.25881905,0.96592583,-58.761184,-233.50391)">
      <path
         style="opacity:1;fill:#68c5d8;fill-opacity:1;stroke:#000000;stroke-width:2.99999976;stroke-miterlimit:4;stroke-dasharray:none;stroke-opacity:1"
         d="m 290.68114,477.60743 -14.97038,6.50936 a 30.170912,51.792546 0 0 0 -2.20001,19.33643 30.170912,51.792546 0 0 0 2.20459,19.34563 l 14.9658,6.50708 a 68.644927,51.698482 0 0 0 0,-51.6985 z"
         id="path4494"
         inkscape:connector-curvature="0" />
      <path
         style="opacity:1;fill:#000000;fill-opacity:1;stroke:#000000;stroke-width:2.99999976;stroke-miterlimit:4;stroke-dasharray:none;stroke-opacity:1"
         d="m 292.50869,478.34179 a 15.757246,30.19087 0 0 0 -7.02957,25.11374 15.757246,30.19087 0 0 0 7.04634,25.13554 62.979609,51.698482 0 0 0 -0.0166,-50.24928 z"
         id="path4496"
         inkscape:connector-curvature="0" />
      <path
         style="fill:none;fill-rule:evenodd;stroke:#000000;stroke-width:2.99999976;stroke-linecap:round;stroke-linejoin:round;stroke-miterlimit:4;stroke-dasharray:none;stroke-opacity:1"
         d="m 308.56599,468.26217 c -28.81545,17.40731 -54.35174,19.29434 -85.56455,35.195 30.15467,8.83653 56.25842,21.71118 83.41546,32.65445"
         id="path4498"
         inkscape:connector-curvature="0"
         sodipodi:nodetypes="ccc" />
      <path
         style="opacity:1;fill:#ffffff;fill-opacity:1;stroke:#000000;stroke-width:2.99999976;stroke-linecap:round;stroke-linejoin:round;stroke-miterlimit:4;stroke-dasharray:none;stroke-opacity:1"
         d="M 48.21183,52.155009 C 35.090221,46.575602 20.376302,41.01107 9.5277174,37.525394 L 5.8453909,36.342253 7.3180087,35.629827 C 11.92105,33.402961 20.010813,30.077015 26.821849,27.611209 c 4.631757,-1.676838 25.20901,-8.613713 25.295323,-8.5274 0.02938,0.02938 -0.175948,1.403336 -0.456274,3.053245 -0.875727,5.15426 -1.131533,8.416536 -1.136239,14.49032 -0.0049,6.352757 0.323901,10.155089 1.417923,16.396038 0.06391,0.364602 0.04614,0.656618 -0.03951,0.648923 -0.08564,-0.0077 -1.746702,-0.690492 -3.691245,-1.517326 z"
         id="path4500"
         inkscape:connector-curvature="0"
         transform="translate(221.50169,466.75105)" />
    </g>
    <circle
       r="106.02728"
       cy="398.33493"
       cx="348.85458"
       id="circle4502"
       style="fill:none;stroke:#0000ff;stroke-width:1;stroke-miterlimit:4;stroke-dasharray:none" />
    <circle
       r="64.585854"
       cy="425.77634"
       cx="451.26736"
       id="circle4506"
       style="fill:none;stroke:#0000ff;stroke-width:1;stroke-miterlimit:4;stroke-dasharray:none" />
    <rect
       y="181.8622"
       x="18.108797"
       height="457.04779"
       width="770.39117"
       id="rect4518"
       style="opacity:0.00100002;fill:none;stroke:#000000;stroke-width:1;stroke-miterlimit:4;stroke-dasharray:none;stroke-dashoffset:0" />
    <path
       sodipodi:nodetypes="cccc"
       inkscape:connector-curvature="0"
       id="path4520"
       d="m 18.108797,623.81337 c 12.303357,1.60824 24.693861,2.45945 37.101562,2.54883 C 222.60319,626.36185 358.30181,490.66323 358.30216,323.2704 358.2357,273.97108 346.1447,225.43208 323.07755,181.8622"
       style="fill:none;stroke:#0000ff;stroke-width:1;stroke-miterlimit:4;stroke-dasharray:none" />
  </g>
  <g
     transform="translate(-18.108797,-181.8622)"
     id="g4560"
     inkscape:groupmode="layer"
     inkscape:label="6"
     style="display:none">
    <path
       inkscape:connector-curvature="0"
       id="path4564"
       d="M 28,312.3622 700.30152,492.50485"
       style="fill:none;fill-rule:evenodd;stroke:#000000;stroke-width:1;stroke-linecap:butt;stroke-linejoin:miter;stroke-miterlimit:4;stroke-dasharray:none;stroke-opacity:1" />
    <path
       inkscape:connector-curvature="0"
       id="path4566"
       d="m 604.03849,181.8622 -86.41211,49.89062 -38.24805,66.2461 91.64844,52.91406 0,80.71875 -80.61719,46.54492 19.72461,73.61914 -206.07812,-55.21875 -6.65039,142.33204 491.09374,0 0,-457.04688 -184.46093,0 z"
       style="fill:#cccccc;stroke:none;stroke-width:1;stroke-miterlimit:4;stroke-dasharray:none;stroke-dashoffset:0" />
    <g
       inkscape:label="Layer 1"
       id="g4568"
       transform="matrix(0.96592583,0.25881905,-0.25881905,0.96592583,-58.761184,-233.50391)">
      <path
         style="opacity:1;fill:#68c5d8;fill-opacity:1;stroke:#000000;stroke-width:2.99999976;stroke-miterlimit:4;stroke-dasharray:none;stroke-opacity:1"
         d="m 290.68114,477.60743 -14.97038,6.50936 a 30.170912,51.792546 0 0 0 -2.20001,19.33643 30.170912,51.792546 0 0 0 2.20459,19.34563 l 14.9658,6.50708 a 68.644927,51.698482 0 0 0 0,-51.6985 z"
         id="path4570"
         inkscape:connector-curvature="0" />
      <path
         style="opacity:1;fill:#000000;fill-opacity:1;stroke:#000000;stroke-width:2.99999976;stroke-miterlimit:4;stroke-dasharray:none;stroke-opacity:1"
         d="m 292.50869,478.34179 a 15.757246,30.19087 0 0 0 -7.02957,25.11374 15.757246,30.19087 0 0 0 7.04634,25.13554 62.979609,51.698482 0 0 0 -0.0166,-50.24928 z"
         id="path4572"
         inkscape:connector-curvature="0" />
      <path
         style="fill:none;fill-rule:evenodd;stroke:#000000;stroke-width:2.99999976;stroke-linecap:round;stroke-linejoin:round;stroke-miterlimit:4;stroke-dasharray:none;stroke-opacity:1"
         d="m 308.56599,468.26217 c -28.81545,17.40731 -54.35174,19.29434 -85.56455,35.195 30.15467,8.83653 56.25842,21.71118 83.41546,32.65445"
         id="path4574"
         inkscape:connector-curvature="0"
         sodipodi:nodetypes="ccc" />
      <path
         style="opacity:1;fill:#ffffff;fill-opacity:1;stroke:#000000;stroke-width:2.99999976;stroke-linecap:round;stroke-linejoin:round;stroke-miterlimit:4;stroke-dasharray:none;stroke-opacity:1"
         d="M 48.21183,52.155009 C 35.090221,46.575602 20.376302,41.01107 9.5277174,37.525394 L 5.8453909,36.342253 7.3180087,35.629827 C 11.92105,33.402961 20.010813,30.077015 26.821849,27.611209 c 4.631757,-1.676838 25.20901,-8.613713 25.295323,-8.5274 0.02938,0.02938 -0.175948,1.403336 -0.456274,3.053245 -0.875727,5.15426 -1.131533,8.416536 -1.136239,14.49032 -0.0049,6.352757 0.323901,10.155089 1.417923,16.396038 0.06391,0.364602 0.04614,0.656618 -0.03951,0.648923 -0.08564,-0.0077 -1.746702,-0.690492 -3.691245,-1.517326 z"
         id="path4576"
         inkscape:connector-curvature="0"
         transform="translate(221.50169,466.75105)" />
    </g>
    <circle
       r="106.02728"
       cy="398.33493"
       cx="348.85458"
       id="circle4578"
       style="fill:none;stroke:#0000ff;stroke-width:1;stroke-miterlimit:4;stroke-dasharray:none" />
    <circle
       r="64.585854"
       cy="425.77634"
       cx="451.26736"
       id="circle4582"
       style="fill:none;stroke:#0000ff;stroke-width:1;stroke-miterlimit:4;stroke-dasharray:none" />
    <circle
       r="19.348537"
       cy="442.49213"
       cx="513.65149"
       id="circle4584"
       style="fill:none;stroke:#0000ff;stroke-width:1;stroke-miterlimit:4;stroke-dasharray:none" />
    <rect
       y="181.8622"
       x="18.108797"
       height="457.04779"
       width="770.39117"
       id="rect4594"
       style="opacity:0.00100002;fill:none;stroke:#000000;stroke-width:1;stroke-miterlimit:4;stroke-dasharray:none;stroke-dashoffset:0" />
    <path
       sodipodi:nodetypes="cccc"
       inkscape:connector-curvature="0"
       id="path4596"
       d="m 18.108797,623.81337 c 12.303357,1.60824 24.693861,2.45945 37.101562,2.54883 C 222.60319,626.36185 358.30181,490.66323 358.30216,323.2704 358.2357,273.97108 346.1447,225.43208 323.07755,181.8622"
       style="fill:none;stroke:#0000ff;stroke-width:1;stroke-miterlimit:4;stroke-dasharray:none" />
  </g>
  <g
     style="display:none"
     inkscape:label="7"
     inkscape:groupmode="layer"
     id="g4711"
     transform="translate(-18.108797,-181.8622)">
    <path
       style="fill:none;fill-rule:evenodd;stroke:#000000;stroke-width:1;stroke-linecap:butt;stroke-linejoin:miter;stroke-miterlimit:4;stroke-dasharray:none;stroke-opacity:1"
       d="M 28,312.3622 700.30152,492.50485"
       id="path4713"
       inkscape:connector-curvature="0" />
    <path
       style="fill:#cccccc;stroke:none;stroke-width:1;stroke-miterlimit:4;stroke-dasharray:none;stroke-dashoffset:0"
       d="m 604.03849,181.8622 -86.41211,49.89062 -38.24805,66.2461 91.64844,52.91406 0,80.71875 -80.61719,46.54492 19.72461,73.61914 -206.07812,-55.21875 -6.65039,142.33204 491.09374,0 0,-457.04688 -184.46093,0 z"
       id="path4715"
       inkscape:connector-curvature="0" />
    <g
       transform="matrix(0.96592583,0.25881905,-0.25881905,0.96592583,-58.761184,-233.50391)"
       id="g4717"
       inkscape:label="Layer 1">
      <path
         inkscape:connector-curvature="0"
         id="path4719"
         d="m 290.68114,477.60743 -14.97038,6.50936 a 30.170912,51.792546 0 0 0 -2.20001,19.33643 30.170912,51.792546 0 0 0 2.20459,19.34563 l 14.9658,6.50708 a 68.644927,51.698482 0 0 0 0,-51.6985 z"
         style="opacity:1;fill:#68c5d8;fill-opacity:1;stroke:#000000;stroke-width:2.99999976;stroke-miterlimit:4;stroke-dasharray:none;stroke-opacity:1" />
      <path
         inkscape:connector-curvature="0"
         id="path4721"
         d="m 292.50869,478.34179 a 15.757246,30.19087 0 0 0 -7.02957,25.11374 15.757246,30.19087 0 0 0 7.04634,25.13554 62.979609,51.698482 0 0 0 -0.0166,-50.24928 z"
         style="opacity:1;fill:#000000;fill-opacity:1;stroke:#000000;stroke-width:2.99999976;stroke-miterlimit:4;stroke-dasharray:none;stroke-opacity:1" />
      <path
         sodipodi:nodetypes="ccc"
         inkscape:connector-curvature="0"
         id="path4723"
         d="m 308.56599,468.26217 c -28.81545,17.40731 -54.35174,19.29434 -85.56455,35.195 30.15467,8.83653 56.25842,21.71118 83.41546,32.65445"
         style="fill:none;fill-rule:evenodd;stroke:#000000;stroke-width:2.99999976;stroke-linecap:round;stroke-linejoin:round;stroke-miterlimit:4;stroke-dasharray:none;stroke-opacity:1" />
      <path
         transform="translate(221.50169,466.75105)"
         inkscape:connector-curvature="0"
         id="path4725"
         d="M 48.21183,52.155009 C 35.090221,46.575602 20.376302,41.01107 9.5277174,37.525394 L 5.8453909,36.342253 7.3180087,35.629827 C 11.92105,33.402961 20.010813,30.077015 26.821849,27.611209 c 4.631757,-1.676838 25.20901,-8.613713 25.295323,-8.5274 0.02938,0.02938 -0.175948,1.403336 -0.456274,3.053245 -0.875727,5.15426 -1.131533,8.416536 -1.136239,14.49032 -0.0049,6.352757 0.323901,10.155089 1.417923,16.396038 0.06391,0.364602 0.04614,0.656618 -0.03951,0.648923 -0.08564,-0.0077 -1.746702,-0.690492 -3.691245,-1.517326 z"
         style="opacity:1;fill:#ffffff;fill-opacity:1;stroke:#000000;stroke-width:2.99999976;stroke-linecap:round;stroke-linejoin:round;stroke-miterlimit:4;stroke-dasharray:none;stroke-opacity:1" />
    </g>
    <circle
       style="fill:none;stroke:#0000ff;stroke-width:1;stroke-miterlimit:4;stroke-dasharray:none"
       id="circle4727"
       cx="348.85458"
       cy="398.33493"
       r="106.02728" />
    <circle
       style="fill:none;stroke:#0000ff;stroke-width:1;stroke-miterlimit:4;stroke-dasharray:none"
       id="circle4729"
       cx="451.26736"
       cy="425.77634"
       r="64.585854" />
    <circle
       style="fill:none;stroke:#0000ff;stroke-width:1;stroke-miterlimit:4;stroke-dasharray:none"
       id="circle4731"
       cx="513.65149"
       cy="442.49213"
       r="19.348537" />
    <circle
       style="fill:none;stroke:#0000ff;stroke-width:1;stroke-miterlimit:4;stroke-dasharray:none"
       id="circle4733"
       cx="532.34045"
       cy="447.49982"
       r="5.8936419" />
    <rect
       style="opacity:0.00100002;fill:none;stroke:#000000;stroke-width:1;stroke-miterlimit:4;stroke-dasharray:none;stroke-dashoffset:0"
       id="rect4735"
       width="770.39117"
       height="457.04779"
       x="18.108797"
       y="181.8622" />
    <path
       style="fill:none;stroke:#0000ff;stroke-width:1;stroke-miterlimit:4;stroke-dasharray:none"
       d="m 18.108797,623.81337 c 12.303357,1.60824 24.693861,2.45945 37.101562,2.54883 C 222.60319,626.36185 358.30181,490.66323 358.30216,323.2704 358.2357,273.97108 346.1447,225.43208 323.07755,181.8622"
       id="path4737"
       inkscape:connector-curvature="0"
       sodipodi:nodetypes="cccc" />
  </g>
  <g
     transform="translate(-18.108797,-181.8622)"
     id="g4739"
     inkscape:groupmode="layer"
     inkscape:label="8"
     style="display:none">
    <path
       inkscape:connector-curvature="0"
       id="path4741"
       d="M 28,312.3622 700.30152,492.50485"
       style="fill:none;fill-rule:evenodd;stroke:#000000;stroke-width:1;stroke-linecap:butt;stroke-linejoin:miter;stroke-miterlimit:4;stroke-dasharray:none;stroke-opacity:1" />
    <path
       inkscape:connector-curvature="0"
       id="path4743"
       d="m 604.03849,181.8622 -86.41211,49.89062 -38.24805,66.2461 91.64844,52.91406 0,80.71875 -80.61719,46.54492 19.72461,73.61914 -206.07812,-55.21875 -6.65039,142.33204 491.09374,0 0,-457.04688 -184.46093,0 z"
       style="fill:#cccccc;stroke:none;stroke-width:1;stroke-miterlimit:4;stroke-dasharray:none;stroke-dashoffset:0" />
    <g
       inkscape:label="Layer 1"
       id="g4745"
       transform="matrix(0.96592583,0.25881905,-0.25881905,0.96592583,-58.761184,-233.50391)">
      <path
         style="opacity:1;fill:#68c5d8;fill-opacity:1;stroke:#000000;stroke-width:2.99999976;stroke-miterlimit:4;stroke-dasharray:none;stroke-opacity:1"
         d="m 290.68114,477.60743 -14.97038,6.50936 a 30.170912,51.792546 0 0 0 -2.20001,19.33643 30.170912,51.792546 0 0 0 2.20459,19.34563 l 14.9658,6.50708 a 68.644927,51.698482 0 0 0 0,-51.6985 z"
         id="path4747"
         inkscape:connector-curvature="0" />
      <path
         style="opacity:1;fill:#000000;fill-opacity:1;stroke:#000000;stroke-width:2.99999976;stroke-miterlimit:4;stroke-dasharray:none;stroke-opacity:1"
         d="m 292.50869,478.34179 a 15.757246,30.19087 0 0 0 -7.02957,25.11374 15.757246,30.19087 0 0 0 7.04634,25.13554 62.979609,51.698482 0 0 0 -0.0166,-50.24928 z"
         id="path4749"
         inkscape:connector-curvature="0" />
      <path
         style="fill:none;fill-rule:evenodd;stroke:#000000;stroke-width:2.99999976;stroke-linecap:round;stroke-linejoin:round;stroke-miterlimit:4;stroke-dasharray:none;stroke-opacity:1"
         d="m 308.56599,468.26217 c -28.81545,17.40731 -54.35174,19.29434 -85.56455,35.195 30.15467,8.83653 56.25842,21.71118 83.41546,32.65445"
         id="path4751"
         inkscape:connector-curvature="0"
         sodipodi:nodetypes="ccc" />
      <path
         style="opacity:1;fill:#ffffff;fill-opacity:1;stroke:#000000;stroke-width:2.99999976;stroke-linecap:round;stroke-linejoin:round;stroke-miterlimit:4;stroke-dasharray:none;stroke-opacity:1"
         d="M 48.21183,52.155009 C 35.090221,46.575602 20.376302,41.01107 9.5277174,37.525394 L 5.8453909,36.342253 7.3180087,35.629827 C 11.92105,33.402961 20.010813,30.077015 26.821849,27.611209 c 4.631757,-1.676838 25.20901,-8.613713 25.295323,-8.5274 0.02938,0.02938 -0.175948,1.403336 -0.456274,3.053245 -0.875727,5.15426 -1.131533,8.416536 -1.136239,14.49032 -0.0049,6.352757 0.323901,10.155089 1.417923,16.396038 0.06391,0.364602 0.04614,0.656618 -0.03951,0.648923 -0.08564,-0.0077 -1.746702,-0.690492 -3.691245,-1.517326 z"
         id="path4753"
         inkscape:connector-curvature="0"
         transform="translate(221.50169,466.75105)" />
    </g>
    <rect
       y="181.8622"
       x="18.108797"
       height="457.04779"
       width="770.39117"
       id="rect4763"
       style="opacity:0.00100002;fill:none;stroke:#000000;stroke-width:1;stroke-miterlimit:4;stroke-dasharray:none;stroke-dashoffset:0" />
    <circle
       id="path4795"
       style="fill:#0000ff;stroke:none"
       cx="539.99182"
       cy="449.54999"
       r="5" />
  </g>
  <g
     transform="translate(-18.108797,-181.8622)"
     id="g4957"
     inkscape:groupmode="layer"
     inkscape:label="9"
     style="display:none">
    <g
       id="g5027">
      <path
         style="fill:none;fill-rule:evenodd;stroke:#000000;stroke-width:1px;stroke-linecap:butt;stroke-linejoin:miter;stroke-opacity:1"
         d="M 672.18257,527.89423 45.685961,315.76219 670.06125,554.05718"
         id="path4959"
         inkscape:connector-curvature="0" />
      <path
         inkscape:connector-curvature="0"
         id="path4961"
         d="M 700.30152,492.50485 44.367254,316.74779 679.96075,503.85259"
         style="fill:none;fill-rule:evenodd;stroke:#000000;stroke-width:1;stroke-linecap:butt;stroke-linejoin:miter;stroke-miterlimit:4;stroke-dasharray:none;stroke-opacity:1"
         sodipodi:nodetypes="ccc" />
      <path
         style="fill:none;fill-rule:evenodd;stroke:#000000;stroke-width:1px;stroke-linecap:butt;stroke-linejoin:miter;stroke-opacity:1"
         d="M 628.34195,636.78867 46.393068,316.4693 536.41807,630.42471"
         id="path4963"
         inkscape:connector-curvature="0" />
      <path
         style="fill:none;fill-rule:evenodd;stroke:#000000;stroke-width:1px;stroke-linecap:butt;stroke-linejoin:miter;stroke-opacity:1"
         d="M 667.93993,585.16988 46.393068,317.17641 652.38358,609.91861"
         id="path4965"
         inkscape:connector-curvature="0" />
      <path
         style="fill:none;fill-rule:evenodd;stroke:#000000;stroke-width:1px;stroke-linecap:butt;stroke-linejoin:miter;stroke-opacity:1"
         d="M 699.05263,476.27543 45.685961,315.76219 703.29527,457.18355"
         id="path4967"
         inkscape:connector-curvature="0"
         sodipodi:nodetypes="ccc" />
      <path
         style="fill:none;fill-rule:evenodd;stroke:#000000;stroke-width:1px;stroke-linecap:butt;stroke-linejoin:miter;stroke-opacity:1"
         d="M 700.46684,433.84903 45.685961,316.4693 701.88106,409.8074"
         id="path4969"
         inkscape:connector-curvature="0"
         sodipodi:nodetypes="ccc" />
      <path
         style="fill:none;fill-rule:evenodd;stroke:#000000;stroke-width:1px;stroke-linecap:butt;stroke-linejoin:miter;stroke-opacity:1"
         d="M 701.88106,394.95815 44.978855,315.05508 698.34552,367.38099"
         id="path4971"
         inkscape:connector-curvature="0" />
      <path
         style="fill:none;fill-rule:evenodd;stroke:#000000;stroke-width:1px;stroke-linecap:butt;stroke-linejoin:miter;stroke-opacity:1"
         d="M 435.3018,620.52521 45.685961,315.76219 674.30389,271.92157"
         id="path4973"
         inkscape:connector-curvature="0" />
      <path
         style="fill:none;fill-rule:evenodd;stroke:#000000;stroke-width:1px;stroke-linecap:butt;stroke-linejoin:miter;stroke-opacity:1"
         d="M 694.10288,334.85407 45.685961,315.05508 688.44603,302.32716"
         id="path4975"
         inkscape:connector-curvature="0" />
      <path
         style="fill:#cccccc;stroke:none;stroke-width:1;stroke-miterlimit:4;stroke-dasharray:none;stroke-dashoffset:0"
         d="m 604.03849,181.8622 -86.41211,49.89062 -38.24805,66.2461 91.64844,52.91406 0,80.71875 -80.61719,46.54492 19.72461,73.61914 -206.07812,-55.21875 -6.65039,142.33204 491.09374,0 0,-457.04688 -184.46093,0 z"
         id="path4977"
         inkscape:connector-curvature="0" />
      <g
         transform="matrix(0.96592583,0.25881905,-0.25881905,0.96592583,-58.761184,-233.50391)"
         id="g4979"
         inkscape:label="Layer 1">
        <path
           inkscape:connector-curvature="0"
           id="path4981"
           d="m 290.68114,477.60743 -14.97038,6.50936 a 30.170912,51.792546 0 0 0 -2.20001,19.33643 30.170912,51.792546 0 0 0 2.20459,19.34563 l 14.9658,6.50708 a 68.644927,51.698482 0 0 0 0,-51.6985 z"
           style="opacity:1;fill:#68c5d8;fill-opacity:1;stroke:#000000;stroke-width:2.99999976;stroke-miterlimit:4;stroke-dasharray:none;stroke-opacity:1" />
        <path
           inkscape:connector-curvature="0"
           id="path4983"
           d="m 292.50869,478.34179 a 15.757246,30.19087 0 0 0 -7.02957,25.11374 15.757246,30.19087 0 0 0 7.04634,25.13554 62.979609,51.698482 0 0 0 -0.0166,-50.24928 z"
           style="opacity:1;fill:#000000;fill-opacity:1;stroke:#000000;stroke-width:2.99999976;stroke-miterlimit:4;stroke-dasharray:none;stroke-opacity:1" />
        <path
           sodipodi:nodetypes="ccc"
           inkscape:connector-curvature="0"
           id="path4985"
           d="m 308.56599,468.26217 c -28.81545,17.40731 -54.35174,19.29434 -85.56455,35.195 30.15467,8.83653 56.25842,21.71118 83.41546,32.65445"
           style="fill:none;fill-rule:evenodd;stroke:#000000;stroke-width:2.99999976;stroke-linecap:round;stroke-linejoin:round;stroke-miterlimit:4;stroke-dasharray:none;stroke-opacity:1" />
        <path
           transform="translate(221.50169,466.75105)"
           inkscape:connector-curvature="0"
           id="path4987"
           d="M 48.21183,52.155009 C 35.090221,46.575602 20.376302,41.01107 9.5277174,37.525394 L 5.8453909,36.342253 7.3180087,35.629827 C 11.92105,33.402961 20.010813,30.077015 26.821849,27.611209 c 4.631757,-1.676838 25.20901,-8.613713 25.295323,-8.5274 0.02938,0.02938 -0.175948,1.403336 -0.456274,3.053245 -0.875727,5.15426 -1.131533,8.416536 -1.136239,14.49032 -0.0049,6.352757 0.323901,10.155089 1.417923,16.396038 0.06391,0.364602 0.04614,0.656618 -0.03951,0.648923 -0.08564,-0.0077 -1.746702,-0.690492 -3.691245,-1.517326 z"
           style="opacity:1;fill:#ffffff;fill-opacity:1;stroke:#000000;stroke-width:2.99999976;stroke-linecap:round;stroke-linejoin:round;stroke-miterlimit:4;stroke-dasharray:none;stroke-opacity:1" />
      </g>
      <rect
         style="opacity:0.00100002;fill:none;stroke:#000000;stroke-width:1;stroke-miterlimit:4;stroke-dasharray:none;stroke-dashoffset:0"
         id="rect4989"
         width="770.39117"
         height="457.04779"
         x="18.108797"
         y="181.8622" />
    </g>
  </g>
  <g
     style="display:inline"
     inkscape:label="10"
     inkscape:groupmode="layer"
     id="g4797"
     transform="translate(-18.108797,-181.8622)">
    <g
       id="g5045">
      <path
         inkscape:connector-curvature="0"
         id="path4821"
         d="M 672.18257,527.89423 45.685961,315.76219 670.06125,554.05718"
         style="fill:none;fill-rule:evenodd;stroke:#000000;stroke-width:1px;stroke-linecap:butt;stroke-linejoin:miter;stroke-opacity:1" />
      <path
         sodipodi:nodetypes="ccc"
         style="fill:none;fill-rule:evenodd;stroke:#000000;stroke-width:1;stroke-linecap:butt;stroke-linejoin:miter;stroke-miterlimit:4;stroke-dasharray:none;stroke-opacity:1"
         d="M 700.30152,492.50485 44.367254,316.74779 679.96075,503.85259"
         id="path4819"
         inkscape:connector-curvature="0" />
      <path
         inkscape:connector-curvature="0"
         id="path4825"
         d="M 628.34195,636.78867 46.393068,316.4693 536.41807,630.42471"
         style="fill:none;fill-rule:evenodd;stroke:#000000;stroke-width:1px;stroke-linecap:butt;stroke-linejoin:miter;stroke-opacity:1" />
      <path
         inkscape:connector-curvature="0"
         id="path4823"
         d="M 667.93993,585.16988 46.393068,317.17641 652.38358,609.91861"
         style="fill:none;fill-rule:evenodd;stroke:#000000;stroke-width:1px;stroke-linecap:butt;stroke-linejoin:miter;stroke-opacity:1" />
      <path
         sodipodi:nodetypes="ccc"
         inkscape:connector-curvature="0"
         id="path4827"
         d="M 699.05263,476.27543 45.685961,315.76219 703.29527,457.18355"
         style="fill:none;fill-rule:evenodd;stroke:#000000;stroke-width:1px;stroke-linecap:butt;stroke-linejoin:miter;stroke-opacity:1" />
      <path
         sodipodi:nodetypes="ccc"
         inkscape:connector-curvature="0"
         id="path4829"
         d="M 700.46684,433.84903 45.685961,316.4693 701.88106,409.8074"
         style="fill:none;fill-rule:evenodd;stroke:#000000;stroke-width:1px;stroke-linecap:butt;stroke-linejoin:miter;stroke-opacity:1" />
      <path
         inkscape:connector-curvature="0"
         id="path4831"
         d="M 701.88106,394.95815 44.978855,315.05508 698.34552,367.38099"
         style="fill:none;fill-rule:evenodd;stroke:#000000;stroke-width:1px;stroke-linecap:butt;stroke-linejoin:miter;stroke-opacity:1" />
      <path
         inkscape:connector-curvature="0"
         id="path4835"
         d="M 435.3018,620.52521 45.685961,315.76219 674.30389,271.92157"
         style="fill:none;fill-rule:evenodd;stroke:#000000;stroke-width:1px;stroke-linecap:butt;stroke-linejoin:miter;stroke-opacity:1" />
      <path
         inkscape:connector-curvature="0"
         id="path4833"
         d="M 694.10288,334.85407 45.685961,315.05508 688.44603,302.32716"
         style="fill:none;fill-rule:evenodd;stroke:#000000;stroke-width:1px;stroke-linecap:butt;stroke-linejoin:miter;stroke-opacity:1" />
      <path
         inkscape:connector-curvature="0"
         id="path4801"
         d="m 604.03849,181.8622 -86.41211,49.89062 -38.24805,66.2461 91.64844,52.91406 0,80.71875 -80.61719,46.54492 19.72461,73.61914 -206.07812,-55.21875 -6.65039,142.33204 491.09374,0 0,-457.04688 -184.46093,0 z"
         style="fill:#cccccc;stroke:none;stroke-width:1;stroke-miterlimit:4;stroke-dasharray:none;stroke-dashoffset:0" />
      <g
         inkscape:label="Layer 1"
         id="g4803"
         transform="matrix(0.96592583,0.25881905,-0.25881905,0.96592583,-58.761184,-233.50391)">
        <path
           style="opacity:1;fill:#68c5d8;fill-opacity:1;stroke:#000000;stroke-width:2.99999976;stroke-miterlimit:4;stroke-dasharray:none;stroke-opacity:1"
           d="m 290.68114,477.60743 -14.97038,6.50936 a 30.170912,51.792546 0 0 0 -2.20001,19.33643 30.170912,51.792546 0 0 0 2.20459,19.34563 l 14.9658,6.50708 a 68.644927,51.698482 0 0 0 0,-51.6985 z"
           id="path4805"
           inkscape:connector-curvature="0" />
        <path
           style="opacity:1;fill:#000000;fill-opacity:1;stroke:#000000;stroke-width:2.99999976;stroke-miterlimit:4;stroke-dasharray:none;stroke-opacity:1"
           d="m 292.50869,478.34179 a 15.757246,30.19087 0 0 0 -7.02957,25.11374 15.757246,30.19087 0 0 0 7.04634,25.13554 62.979609,51.698482 0 0 0 -0.0166,-50.24928 z"
           id="path4807"
           inkscape:connector-curvature="0" />
        <path
           style="fill:none;fill-rule:evenodd;stroke:#000000;stroke-width:2.99999976;stroke-linecap:round;stroke-linejoin:round;stroke-miterlimit:4;stroke-dasharray:none;stroke-opacity:1"
           d="m 308.56599,468.26217 c -28.81545,17.40731 -54.35174,19.29434 -85.56455,35.195 30.15467,8.83653 56.25842,21.71118 83.41546,32.65445"
           id="path4809"
           inkscape:connector-curvature="0"
           sodipodi:nodetypes="ccc" />
        <path
           style="opacity:1;fill:#ffffff;fill-opacity:1;stroke:#000000;stroke-width:2.99999976;stroke-linecap:round;stroke-linejoin:round;stroke-miterlimit:4;stroke-dasharray:none;stroke-opacity:1"
           d="M 48.21183,52.155009 C 35.090221,46.575602 20.376302,41.01107 9.5277174,37.525394 L 5.8453909,36.342253 7.3180087,35.629827 C 11.92105,33.402961 20.010813,30.077015 26.821849,27.611209 c 4.631757,-1.676838 25.20901,-8.613713 25.295323,-8.5274 0.02938,0.02938 -0.175948,1.403336 -0.456274,3.053245 -0.875727,5.15426 -1.131533,8.416536 -1.136239,14.49032 -0.0049,6.352757 0.323901,10.155089 1.417923,16.396038 0.06391,0.364602 0.04614,0.656618 -0.03951,0.648923 -0.08564,-0.0077 -1.746702,-0.690492 -3.691245,-1.517326 z"
           id="path4811"
           inkscape:connector-curvature="0"
           transform="translate(221.50169,466.75105)" />
      </g>
      <rect
         y="181.8622"
         x="18.108797"
         height="457.04779"
         width="770.39117"
         id="rect4813"
         style="opacity:0.00100002;fill:none;stroke:#000000;stroke-width:1;stroke-miterlimit:4;stroke-dasharray:none;stroke-dashoffset:0" />
      <circle
         id="circle4815"
         style="fill:#0000ff;stroke:none"
         cx="539.99182"
         cy="449.54999"
         r="5" />
      <circle
         id="circle4815-5"
         style="display:inline;fill:#0000ff;stroke:none"
         cx="525.48383"
         cy="458.535"
         r="5" />
      <circle
         id="circle4815-8"
         style="display:inline;fill:#0000ff;stroke:none"
         cx="503.4838"
         cy="470.91"
         r="5" />
      <circle
         id="circle4815-0"
         style="display:inline;fill:#0000ff;stroke:none"
         cx="554.73383"
         cy="440.91"
         r="5" />
      <circle
         id="circle4815-1"
         style="display:inline;fill:#0000ff;stroke:none"
         cx="571.23383"
         cy="429.16"
         r="5" />
      <circle
         id="circle4815-6"
         style="display:inline;fill:#0000ff;stroke:none"
         cx="570.98383"
         cy="411.16"
         r="5" />
      <circle
         id="circle4815-4"
         style="display:inline;fill:#0000ff;stroke:none"
         cx="492.9838"
         cy="486.285"
         r="5" />
      <circle
         id="circle4815-2"
         style="display:inline;fill:#0000ff;stroke:none"
         cx="499.8588"
         cy="512.40997"
         r="5" />
      <circle
         id="circle4815-42"
         style="display:inline;fill:#0000ff;stroke:none"
         cx="506.9838"
         cy="539.28497"
         r="5" />
      <circle
         id="circle4815-05"
         style="display:inline;fill:#0000ff;stroke:none"
         cx="438.8588"
         cy="532.90997"
         r="5" />
      <circle
         id="circle4815-58"
         style="display:inline;fill:#0000ff;stroke:none"
         cx="344.1088"
         cy="507.16"
         r="5" />
      <circle
         id="circle4815-7"
         style="display:inline;fill:#0000ff;stroke:none"
         cx="303.8588"
         cy="517.40997"
         r="5" />
      <circle
         id="circle4815-62"
         style="display:inline;fill:#0000ff;stroke:none"
         cx="486.8588"
         cy="284.41"
         r="5" />
      <circle
         id="circle4815-3"
         style="display:inline;fill:#0000ff;stroke:none"
         cx="493.3588"
         cy="305.91"
         r="5" />
      <circle
         id="circle4815-55"
         style="display:inline;fill:#0000ff;stroke:none"
         cx="535.85883"
         cy="329.41"
         r="5" />
      <circle
         id="circle4815-44"
         style="display:inline;fill:#0000ff;stroke:none"
         cx="571.35883"
         cy="357.66"
         r="5" />
      <circle
         id="circle4815-63"
         style="display:inline;fill:#0000ff;stroke:none"
         cx="572.35883"
         cy="378.91"
         r="5" />
      <circle
         id="circle4815-40"
         style="display:inline;fill:#0000ff;stroke:none"
         cx="571.85883"
         cy="392.41"
         r="5" />
    </g>
  </g>
</svg>
